<?xml version="1.0" ?><svg viewBox="3211 506 120 120.2" xmlns="http://www.w3.org/2000/svg"><defs><style>
      .cls-1 {
        fill: #01BF81;;
      }

      .cls-2 {
        fill: #fff;
      }
    </style></defs><g data-name="Group 44" id="Group_44" transform="translate(2926 -87)"><circle class="cls-1" cx="60" cy="60" data-name="Ellipse 27" id="Ellipse_27" r="60" transform="translate(285 593)"/><path class="cls-2" d="M1331.8,365.5V351.3l7.1-30.9s-5.2-12,2.7-19.5,13.1.8,13.7,3.3-1.1,7.8-3.1,14.1a51.7,51.7,0,0,0-2.3,11.3s7.2,12.6,18,3.3,9.4-22.9,8.4-28.7-12-25.7-34.7-15.4-12.9,34.5-9.8,35.8l-2.4,9.6s-19-9.5-11.1-34,35.3-23.6,35.3-23.6,15.6-.8,26.5,9.4,9.2,25.8,9.2,25.8.9,19-14.4,29.4-28.6-2.2-28.6-2.2a83.928,83.928,0,0,1-3.7,15.8,71.929,71.929,0,0,1-6.1,12.4" data-name="Path 137" id="Path_137" transform="translate(-1008 346)"/></g></svg>