<?xml version="1.0" ?><svg viewBox="2915 506 120 120" xmlns="http://www.w3.org/2000/svg"><defs><style>
      .cls-1 {
        fill: #01BF81;
      }

      .cls-2 {
        fill: #fff;
      }
    </style></defs><g data-name="Group 11" id="Group_11" transform="translate(2852 424)"><circle class="cls-1" cx="60" cy="60" data-name="Ellipse 10" id="Ellipse_10" r="60" transform="translate(63 82)"/><path class="cls-2" d="M495.6,59.5a51.864,51.864,0,0,0,12.5-1.3,22.865,22.865,0,0,0,8.9-4.8,16.568,16.568,0,0,1-8.1-2.8c-3.425-2.575-5.4-7.3-5.4-7.3h6.6s-5.65-1.95-8.6-5.7-3.2-9.3-3.2-9.3a17.353,17.353,0,0,0,3.2,1.4,16.7,16.7,0,0,0,3.4.6s-4.95-4.3-6-9.2,1.8-10.4,1.8-10.4a43.619,43.619,0,0,0,13.2,10.9,38.976,38.976,0,0,0,16.5,4.1s-1.7-11.4,8.3-16,16.9,3.1,16.9,3.1,2.275-.6,4.6-1.5,4.7-2.1,4.7-2.1a20.772,20.772,0,0,1-2.4,4.3A21.122,21.122,0,0,1,559,17s2.2-.325,4-.8a23.358,23.358,0,0,0,3.2-1.1,15.062,15.062,0,0,1-2.8,4.1,19.6,19.6,0,0,1-4.4,3.1s3,23.6-18.9,37.5S495.6,59.5,495.6,59.5Z" data-name="Path 14" id="Path_14" transform="translate(-407.6 104.765)"/></g></svg>